<svg width="24" height="24" viewBox="0 0 24 24" fill="none" xmlns="http://www.w3.org/2000/svg">
<path d="M22.9602 13.36C22.5602 12.48 21.7602 12 20.8802 12C20.2402 12 19.6002 12.24 19.0402 12.8C17.9202 13.84 17.1202 14.56 16.8002 14.72C16.5602 14.88 16.0802 14.8 15.8402 14.48C15.6802 14.24 15.6002 13.92 15.6802 13.44C15.7602 13.12 16.9602 5.51999 17.1202 4.39999C17.2002 3.83999 17.0402 3.27999 16.7202 2.87999C16.3202 2.47999 15.8402 2.23999 15.2802 2.23999C14.4802 2.23999 13.5202 2.79999 13.2802 3.91999C13.2002 4.55999 12.8802 6.55999 12.6402 8.07999C12.6402 6.07999 12.6402 3.19999 12.6402 2.07999C12.6402 1.59999 12.4802 1.11999 12.1602 0.79999C11.7602 0.39999 11.2802 0.23999 10.7202 0.23999C9.76019 0.23999 8.80019 0.87999 8.72019 2.23999C8.72019 3.59999 8.72019 5.59999 8.72019 7.27999C8.48019 5.91999 8.24019 4.39999 8.16019 3.83999C8.08019 2.87999 7.2802 2.23999 6.2402 2.23999C5.6002 2.15999 4.9602 2.39999 4.6402 2.87999C4.4002 3.11999 4.0802 3.67999 4.2402 4.55999C4.4802 6.07999 4.8002 7.91999 5.12019 9.35999C4.8802 8.87999 4.8002 8.47999 4.6402 7.99999C4.4802 7.11999 3.6802 6.55999 2.8002 6.55999C2.1602 6.55999 1.6002 6.87999 1.2002 7.35999C0.800195 7.83999 0.720195 8.55999 0.960195 9.27999C1.6002 11.6 2.4002 14.56 3.4402 18L3.5202 18.24C4.5602 21.84 7.12019 23.84 10.7202 23.84C13.1202 23.84 15.0402 22.64 16.2402 21.6C17.0402 20.96 21.5202 16.96 22.5602 15.84C23.2002 15.12 23.3602 14.16 22.9602 13.36ZM21.6802 15.04C20.7202 16.08 16.5602 19.76 15.4402 20.72C14.5602 21.44 12.8002 22.72 10.7202 22.72C7.60019 22.72 5.5202 21.12 4.7202 18L4.6402 17.76C3.6002 14.24 2.8002 11.36 2.1602 9.03999C2.0802 8.79999 2.0802 8.39999 2.2402 8.15999C2.4002 7.99999 2.6402 7.83999 2.8802 7.83999C3.04019 7.83999 3.4402 7.91999 3.6002 8.39999C3.8402 9.19999 4.0002 9.83999 4.4802 11.2L4.80019 12.24C4.9602 12.88 5.4402 13.2 5.9202 13.2C6.16019 13.2 6.4002 13.12 6.64019 12.88C6.8802 12.64 6.9602 12.24 6.8802 11.84C6.8802 11.68 6.72019 11.04 6.56019 10.16C6.24019 8.55999 5.8402 6.23999 5.5202 4.31999C5.3602 3.99999 5.3602 3.75999 5.5202 3.59999C5.6802 3.43999 5.92019 3.35999 6.16019 3.35999C6.24019 3.35999 6.8002 3.35999 6.8802 3.91999C7.0402 4.95999 7.60019 8.47999 7.8402 9.83999L7.92019 10.16C8.08019 10.88 8.56019 11.12 8.88019 11.12C9.4402 11.12 9.84019 10.72 9.84019 10.16V9.91999C9.84019 8.87999 9.84019 4.55999 9.84019 2.15999C9.84019 1.43999 10.4002 1.35999 10.6402 1.35999C10.8802 1.35999 11.1202 1.43999 11.2802 1.59999C11.3602 1.67999 11.4402 1.83999 11.4402 1.99999C11.4402 3.59999 11.4402 8.47999 11.4402 9.83999C11.4402 10.72 12.0002 11.12 12.4802 11.12C12.9602 11.12 13.4402 10.72 13.5202 10.24C13.5202 10.16 13.6002 9.67999 13.6802 9.03999C13.9202 7.51999 14.3202 4.87999 14.4002 4.07999C14.4802 3.43999 15.0402 3.35999 15.2002 3.35999C15.4402 3.35999 15.6802 3.43999 15.7602 3.59999C15.9202 3.75999 15.9202 3.91999 15.9202 4.15999C15.7602 5.27999 14.5602 13.12 14.5602 13.2C14.4002 14.24 14.7202 14.88 15.0402 15.2C15.6802 15.92 16.8002 16.16 17.6002 15.68C17.9202 15.44 18.5602 14.96 20.0002 13.6C20.8002 12.88 21.6802 13.04 22.0002 13.76C22.0002 14 22.0802 14.56 21.6802 15.04Z" fill="black" fill-opacity="0.87"/>
</svg>
