<svg width="24" height="24" viewBox="0 0 24 24" fill="none" xmlns="http://www.w3.org/2000/svg">
<path d="M18.1989 16.9486C18.1568 16.7815 18.0596 16.6332 17.923 16.5272C17.7863 16.4212 17.6178 16.3636 17.4445 16.3636H17.0276C15.9566 15.0029 15.5731 12.466 15.472 10.9545H15.8889C16.0952 10.9545 16.293 10.8731 16.4389 10.7282C16.5847 10.5833 16.6667 10.3868 16.6667 10.1818C16.6667 9.97688 16.5847 9.78033 16.4389 9.63542C16.293 9.4905 16.0952 9.40909 15.8889 9.40909H15.8383C15.9987 8.97597 16.0817 8.51832 16.0833 8.05682C16.0833 6.98088 15.6531 5.94902 14.8874 5.18821C14.1216 4.42741 13.083 4 12 4C10.917 4 9.87841 4.42741 9.11264 5.18821C8.34686 5.94902 7.91665 6.98088 7.91665 8.05682C7.91834 8.51832 8.00126 8.97597 8.16166 9.40909H8.1111C7.90482 9.40909 7.70699 9.4905 7.56113 9.63542C7.41526 9.78033 7.33332 9.97688 7.33332 10.1818C7.33332 10.3868 7.41526 10.5833 7.56113 10.7282C7.70699 10.8731 7.90482 10.9545 8.1111 10.9545H8.52566C8.42688 12.466 8.04343 15.0029 6.9701 16.3636H6.55554C6.38215 16.3636 6.21373 16.4212 6.07704 16.5272C5.94035 16.6332 5.84323 16.7815 5.80109 16.9486L5.02331 20.0395C4.99458 20.1534 4.99238 20.2724 5.01686 20.3873C5.04134 20.5022 5.09187 20.6101 5.16461 20.7027C5.23734 20.7953 5.33037 20.8702 5.43662 20.9217C5.54286 20.9732 5.65953 21 5.77776 21H18.2222C18.3405 21 18.4571 20.9732 18.5634 20.9217C18.6696 20.8702 18.7627 20.7953 18.8354 20.7027C18.9081 20.6101 18.9587 20.5022 18.9831 20.3873C19.0076 20.2724 19.0054 20.1534 18.9767 20.0395L18.1989 16.9486ZM12 5.54545C12.6702 5.54627 13.3126 5.81112 13.7865 6.28192C14.2604 6.75271 14.527 7.39101 14.5278 8.05682C14.5276 8.5381 14.3842 9.00858 14.1156 9.40909H9.88444C9.61581 9.00858 9.47239 8.5381 9.47221 8.05682C9.47304 7.39101 9.73962 6.75271 10.2135 6.28192C10.6874 5.81112 11.3298 5.54627 12 5.54545ZM10.0836 10.9545H13.9164C13.9899 12.8221 14.4232 14.6583 15.1928 16.3636H8.8111C9.57938 14.658 10.0113 12.8218 10.0836 10.9545ZM6.7741 19.4545L7.16299 17.9091H16.837L17.2259 19.4545H6.7741Z" fill="black" fill-opacity="0.87"/>
</svg>
