<svg width="24" height="24" viewBox="0 0 24 24" fill="none" xmlns="http://www.w3.org/2000/svg">
<path d="M21.0374 3.11252H2.9249C2.2124 3.11252 1.6499 3.67502 1.6499 4.38752V19.9875C1.6499 20.7 2.2124 21.2625 2.9249 21.2625H21.0374C21.7499 21.2625 22.3124 20.7 22.3124 19.9875V4.35002C22.3124 3.67502 21.7499 3.11252 21.0374 3.11252ZM20.8124 19.725H3.1874V4.61252H20.8124V19.725Z" fill="black" fill-opacity="0.87"/>
<path d="M9.5249 16.6125C11.4374 15.4875 13.3874 14.4 15.2999 13.275C15.5624 13.125 15.8624 12.975 16.1249 12.7875C16.3874 12.6375 16.4999 12.375 16.4999 12.15C16.4999 11.925 16.4249 11.6625 16.1249 11.5125C14.2124 10.3875 12.2624 9.30004 10.3499 8.17504C10.0874 8.02504 9.7874 7.87504 9.5249 7.68754C9.0374 7.38754 8.3999 7.76254 8.3999 8.32504C8.3999 10.5375 8.3999 12.75 8.3999 15C8.3999 15.3 8.3999 15.6375 8.3999 15.9375C8.3999 16.5375 9.0374 16.9125 9.5249 16.6125ZM14.2499 12.1875C12.7874 13.0125 11.3624 13.875 9.8999 14.7C9.8999 13.0125 9.8999 11.3625 9.8999 9.67504C11.3249 10.5 12.7874 11.325 14.2499 12.1875Z" fill="black" fill-opacity="0.87"/>
<path d="M4.2001 7.7625C4.3501 7.9125 4.5376 7.9875 4.7251 7.9875C4.9876 7.9875 5.2126 7.9875 5.4751 7.9875C5.5126 7.9875 5.5501 7.9875 5.5876 7.9875C5.6626 7.9875 5.7376 7.9875 5.8126 7.95C5.9251 7.9125 6.0376 7.875 6.1126 7.7625C6.1876 7.725 6.2251 7.65 6.2251 7.575C6.2626 7.5375 6.2626 7.5 6.3001 7.425C6.3376 7.35 6.3376 7.3125 6.3376 7.2375C6.3376 6.975 6.3376 6.75 6.3376 6.4875C6.3376 6.45 6.3376 6.4125 6.3376 6.375C6.3376 6.2625 6.3376 6.1875 6.2626 6.075C6.2251 6 6.1876 5.8875 6.1126 5.85C5.9626 5.7 5.7751 5.625 5.5876 5.625C5.3251 5.625 5.1001 5.625 4.8376 5.625C4.8001 5.625 4.7626 5.625 4.7251 5.625C4.6126 5.625 4.5376 5.625 4.4251 5.7C4.3501 5.7375 4.2376 5.775 4.2001 5.85C4.0501 6 3.9751 6.1875 3.9751 6.375C3.9751 6.6375 3.9751 6.8625 3.9751 7.125C3.9751 7.1625 3.9751 7.2 3.9751 7.2375C3.9751 7.35 3.9751 7.425 4.0501 7.5375C4.0876 7.6125 4.1251 7.6875 4.2001 7.7625Z" fill="black" fill-opacity="0.87"/>
<path d="M17.8876 7.7625C18.0376 7.9125 18.2251 7.9875 18.4126 7.9875C18.6751 7.9875 18.9001 7.9875 19.1626 7.9875C19.2001 7.9875 19.2376 7.9875 19.2751 7.9875C19.3501 7.9875 19.4251 7.9875 19.5001 7.95C19.6126 7.9125 19.7251 7.875 19.8001 7.7625C19.8751 7.725 19.9126 7.65 19.9126 7.575C19.9501 7.5375 19.9501 7.5 19.9876 7.425C20.0251 7.35 20.0251 7.275 20.0251 7.2375C20.0251 6.975 20.0251 6.75 20.0251 6.4875C20.0251 6.45 20.0251 6.4125 20.0251 6.375C20.0251 6.2625 20.0251 6.1875 19.9501 6.075C19.9126 6 19.8751 5.8875 19.8001 5.85C19.6501 5.7 19.4626 5.625 19.2751 5.625C19.0126 5.625 18.7876 5.625 18.5251 5.625C18.4876 5.625 18.4501 5.625 18.4126 5.625C18.3001 5.625 18.2251 5.625 18.1126 5.7C18.0376 5.7375 17.9251 5.775 17.8876 5.85C17.7376 6 17.6626 6.1875 17.6626 6.375C17.6626 6.6375 17.6626 6.8625 17.6626 7.125C17.6626 7.1625 17.6626 7.2 17.6626 7.2375C17.6626 7.35 17.6626 7.425 17.7376 7.5375C17.7751 7.6125 17.8126 7.6875 17.8876 7.7625Z" fill="black" fill-opacity="0.87"/>
<path d="M4.2001 11.2875C4.3501 11.4375 4.5376 11.5125 4.7251 11.5125C4.9876 11.5125 5.2126 11.5125 5.4751 11.5125C5.5126 11.5125 5.5501 11.5125 5.5876 11.5125C5.6626 11.5125 5.7376 11.5125 5.8126 11.475C5.9251 11.4375 6.0376 11.4 6.1126 11.2875C6.1876 11.25 6.2251 11.175 6.2251 11.1C6.2626 11.0625 6.2626 11.025 6.3001 10.95C6.3376 10.875 6.3376 10.8375 6.3376 10.7625C6.3376 10.5 6.3376 10.275 6.3376 10.0125C6.3376 9.97502 6.3376 9.93752 6.3376 9.90002C6.3376 9.78752 6.3376 9.71252 6.2626 9.60002C6.2251 9.52502 6.1876 9.41252 6.1126 9.37502C5.9626 9.22502 5.7751 9.15002 5.5876 9.15002C5.3251 9.15002 5.1001 9.15002 4.8376 9.15002C4.8001 9.15002 4.7626 9.15002 4.7251 9.15002C4.6126 9.15002 4.5376 9.15002 4.4251 9.22502C4.3501 9.26252 4.2376 9.30002 4.2001 9.37502C4.0501 9.52502 3.9751 9.71252 3.9751 9.90002C3.9751 10.1625 3.9751 10.3875 3.9751 10.65C3.9751 10.6875 3.9751 10.725 3.9751 10.7625C3.9751 10.875 3.9751 10.95 4.0501 11.0625C4.0876 11.175 4.1251 11.25 4.2001 11.2875Z" fill="black" fill-opacity="0.87"/>
<path d="M17.8876 11.2875C18.0376 11.4375 18.2251 11.5125 18.4126 11.5125C18.6751 11.5125 18.9001 11.5125 19.1626 11.5125C19.2001 11.5125 19.2376 11.5125 19.2751 11.5125C19.3501 11.5125 19.4251 11.5125 19.5001 11.475C19.6126 11.4375 19.7251 11.4 19.8001 11.2875C19.8751 11.25 19.9126 11.175 19.9126 11.1C19.9501 11.0625 19.9501 11.025 19.9876 10.95C20.0251 10.875 20.0251 10.8 20.0251 10.7625C20.0251 10.5 20.0251 10.275 20.0251 10.0125C20.0251 9.97502 20.0251 9.93752 20.0251 9.90002C20.0251 9.78752 20.0251 9.71252 19.9501 9.60002C19.9126 9.52502 19.8751 9.41252 19.8001 9.37502C19.6501 9.22502 19.4626 9.15002 19.2751 9.15002C19.0126 9.15002 18.7876 9.15002 18.5251 9.15002C18.4876 9.15002 18.4501 9.15002 18.4126 9.15002C18.3001 9.15002 18.2251 9.15002 18.1126 9.22502C18.0376 9.26252 17.9251 9.30002 17.8876 9.37502C17.7376 9.52502 17.6626 9.71252 17.6626 9.90002C17.6626 10.1625 17.6626 10.3875 17.6626 10.65C17.6626 10.6875 17.6626 10.725 17.6626 10.7625C17.6626 10.875 17.6626 10.95 17.7376 11.0625C17.7751 11.175 17.8126 11.25 17.8876 11.2875Z" fill="black" fill-opacity="0.87"/>
<path d="M4.2001 14.85C4.3501 15 4.5376 15.075 4.7251 15.075C4.9876 15.075 5.2126 15.075 5.4751 15.075C5.5126 15.075 5.5501 15.075 5.5876 15.075C5.6626 15.075 5.7376 15.075 5.8126 15.0375C5.9251 15 6.0376 14.9625 6.1126 14.85C6.1876 14.8125 6.2251 14.7375 6.2251 14.6625C6.2626 14.625 6.2626 14.5875 6.3001 14.5125C6.3376 14.4375 6.3376 14.4 6.3376 14.325C6.3376 14.0625 6.3376 13.8375 6.3376 13.575C6.3376 13.5375 6.3376 13.5 6.3376 13.4625C6.3376 13.35 6.3376 13.275 6.2626 13.1625C6.2251 13.0875 6.1876 12.975 6.1126 12.9375C5.9626 12.7875 5.7751 12.7125 5.5876 12.7125C5.3251 12.7125 5.1001 12.7125 4.8376 12.7125C4.8001 12.7125 4.7626 12.7125 4.7251 12.7125C4.6126 12.7125 4.5376 12.7125 4.4251 12.7875C4.3501 12.825 4.2376 12.8625 4.2001 12.9375C4.0501 13.0875 3.9751 13.275 3.9751 13.4625C3.9751 13.725 3.9751 13.95 3.9751 14.2125C3.9751 14.25 3.9751 14.2875 3.9751 14.325C3.9751 14.4375 3.9751 14.5125 4.0501 14.625C4.0876 14.7 4.1251 14.775 4.2001 14.85Z" fill="black" fill-opacity="0.87"/>
<path d="M4.2001 18.6C4.3501 18.75 4.5376 18.825 4.7251 18.825C4.9876 18.825 5.2126 18.825 5.4751 18.825C5.5126 18.825 5.5501 18.825 5.5876 18.825C5.6626 18.825 5.7376 18.825 5.8126 18.7875C5.9251 18.75 6.0376 18.7125 6.1126 18.6C6.1876 18.5625 6.2251 18.4875 6.2251 18.4125C6.2626 18.375 6.2626 18.3375 6.3001 18.2625C6.3376 18.1875 6.3376 18.15 6.3376 18.075C6.3376 17.8125 6.3376 17.5875 6.3376 17.325C6.3376 17.2875 6.3376 17.25 6.3376 17.2125C6.3376 17.1 6.3376 17.025 6.2626 16.9125C6.2251 16.8375 6.1876 16.725 6.1126 16.6875C5.9626 16.5375 5.7751 16.4625 5.5876 16.4625C5.3251 16.4625 5.1001 16.4625 4.8376 16.4625C4.8001 16.4625 4.7626 16.4625 4.7251 16.4625C4.6126 16.4625 4.5376 16.4625 4.4251 16.5375C4.3501 16.575 4.2376 16.6125 4.2001 16.6875C4.0501 16.8375 3.9751 17.025 3.9751 17.2125C3.9751 17.475 3.9751 17.7 3.9751 17.9625C3.9751 18 3.9751 18.0375 3.9751 18.075C3.9751 18.1875 3.9751 18.2625 4.0501 18.375C4.0876 18.45 4.1251 18.525 4.2001 18.6Z" fill="black" fill-opacity="0.87"/>
<path d="M17.8876 15.075C18.0376 15.225 18.2251 15.3 18.4126 15.3C18.6751 15.3 18.9001 15.3 19.1626 15.3C19.2001 15.3 19.2376 15.3 19.2751 15.3C19.3501 15.3 19.4251 15.3 19.5001 15.2625C19.6126 15.225 19.7251 15.1875 19.8001 15.075C19.8751 15.0375 19.9126 14.9625 19.9126 14.8875C19.9501 14.85 19.9501 14.8125 19.9876 14.7375C20.0251 14.6625 20.0251 14.5875 20.0251 14.55C20.0251 14.2875 20.0251 14.0625 20.0251 13.8C20.0251 13.7625 20.0251 13.725 20.0251 13.6875C20.0251 13.575 20.0251 13.5 19.9501 13.3875C19.9126 13.3125 19.8751 13.2 19.8001 13.1625C19.6501 13.0125 19.4626 12.9375 19.2751 12.9375C19.0126 12.9375 18.7876 12.9375 18.5251 12.9375C18.4876 12.9375 18.4501 12.9375 18.4126 12.9375C18.3001 12.9375 18.2251 12.9375 18.1126 13.0125C18.0376 13.05 17.9251 13.0875 17.8876 13.1625C17.7376 13.3125 17.6626 13.5 17.6626 13.6875C17.6626 13.95 17.6626 14.175 17.6626 14.4375C17.6626 14.475 17.6626 14.5125 17.6626 14.55C17.6626 14.6625 17.6626 14.7375 17.7376 14.85C17.7751 14.925 17.8126 15 17.8876 15.075Z" fill="black" fill-opacity="0.87"/>
<path d="M17.8876 18.6C18.0376 18.75 18.2251 18.825 18.4126 18.825C18.6751 18.825 18.9001 18.825 19.1626 18.825C19.2001 18.825 19.2376 18.825 19.2751 18.825C19.3501 18.825 19.4251 18.825 19.5001 18.7875C19.6126 18.75 19.7251 18.7125 19.8001 18.6C19.8751 18.5625 19.9126 18.4875 19.9126 18.4125C19.9501 18.375 19.9501 18.3375 19.9876 18.2625C20.0251 18.1875 20.0251 18.1125 20.0251 18.075C20.0251 17.8125 20.0251 17.5875 20.0251 17.325C20.0251 17.2875 20.0251 17.25 20.0251 17.2125C20.0251 17.1 20.0251 17.025 19.9501 16.9125C19.9126 16.8375 19.8751 16.725 19.8001 16.6875C19.6501 16.5375 19.4626 16.4625 19.2751 16.4625C19.0126 16.4625 18.7876 16.4625 18.5251 16.4625C18.4876 16.4625 18.4501 16.4625 18.4126 16.4625C18.3001 16.4625 18.2251 16.4625 18.1126 16.5375C18.0376 16.575 17.9251 16.6125 17.8876 16.6875C17.7376 16.8375 17.6626 17.025 17.6626 17.2125C17.6626 17.475 17.6626 17.7 17.6626 17.9625C17.6626 18 17.6626 18.0375 17.6626 18.075C17.6626 18.1875 17.6626 18.2625 17.7376 18.375C17.7751 18.45 17.8126 18.525 17.8876 18.6Z" fill="black" fill-opacity="0.87"/>
</svg>
