<svg width="24" height="24" viewBox="0 0 24 24" fill="none" xmlns="http://www.w3.org/2000/svg">
<path fill-rule="evenodd" clip-rule="evenodd" d="M6.0598 4.36318C6.28477 4.58822 6.41114 4.89339 6.41114 5.21158C6.41114 5.52978 6.28477 5.83495 6.0598 6.05998C5.2797 6.84001 4.66088 7.76606 4.23869 8.78525C3.8165 9.80444 3.59919 10.8968 3.59919 12C3.59919 13.1032 3.8165 14.1955 4.23869 15.2147C4.66088 16.2339 5.2797 17.16 6.0598 17.94C6.17441 18.0507 6.26583 18.1831 6.32872 18.3295C6.39161 18.4759 6.42472 18.6334 6.4261 18.7927C6.42749 18.952 6.39712 19.1101 6.33679 19.2575C6.27645 19.405 6.18735 19.539 6.07468 19.6517C5.962 19.7643 5.82802 19.8534 5.68055 19.9138C5.53307 19.9741 5.37505 20.0045 5.21572 20.0031C5.05638 20.0017 4.89892 19.9686 4.75252 19.9057C4.60611 19.8428 4.4737 19.7514 4.363 19.6368C3.36011 18.6339 2.56458 17.4433 2.02182 16.133C1.47906 14.8227 1.19971 13.4183 1.19971 12C1.19971 10.5817 1.47906 9.1773 2.02182 7.86697C2.56458 6.55665 3.36011 5.36606 4.363 4.36318C4.58803 4.13822 4.8932 4.01184 5.2114 4.01184C5.5296 4.01184 5.83477 4.13822 6.0598 4.36318ZM17.9398 4.36318C18.1648 4.13822 18.47 4.01184 18.7882 4.01184C19.1064 4.01184 19.4116 4.13822 19.6366 4.36318C20.6395 5.36606 21.435 6.55665 21.9778 7.86697C22.5205 9.1773 22.7999 10.5817 22.7999 12C22.7999 13.4183 22.5205 14.8227 21.9778 16.133C21.435 17.4433 20.6395 18.6339 19.6366 19.6368C19.5259 19.7514 19.3935 19.8428 19.2471 19.9057C19.1007 19.9686 18.9432 20.0017 18.7839 20.0031C18.6245 20.0045 18.4665 19.9741 18.3191 19.9138C18.1716 19.8534 18.0376 19.7643 17.9249 19.6517C17.8123 19.539 17.7232 19.405 17.6628 19.2575C17.6025 19.1101 17.5721 18.952 17.5735 18.7927C17.5749 18.6334 17.608 18.4759 17.6709 18.3295C17.7338 18.1831 17.8252 18.0507 17.9398 17.94C18.7199 17.16 19.3387 16.2339 19.7609 15.2147C20.1831 14.1955 20.4004 13.1032 20.4004 12C20.4004 10.8968 20.1831 9.80444 19.7609 8.78525C19.3387 7.76606 18.7199 6.84001 17.9398 6.05998C17.7148 5.83495 17.5885 5.52978 17.5885 5.21158C17.5885 4.89339 17.7148 4.58822 17.9398 4.36318ZM9.4546 7.75678C9.67957 7.98182 9.80594 8.28699 9.80594 8.60518C9.80594 8.92338 9.67957 9.22855 9.4546 9.45358C9.12025 9.78788 8.85502 10.1848 8.67406 10.6216C8.49311 11.0584 8.39997 11.5266 8.39997 11.9994C8.39997 12.4722 8.49311 12.9404 8.67406 13.3772C8.85502 13.814 9.12025 14.2109 9.4546 14.5452C9.56601 14.6567 9.65438 14.789 9.71464 14.9347C9.77491 15.0803 9.8059 15.2364 9.80584 15.394C9.80579 15.5516 9.77469 15.7077 9.71432 15.8533C9.65395 15.9989 9.56549 16.1312 9.454 16.2426C9.34251 16.354 9.21016 16.4424 9.06452 16.5026C8.91888 16.5629 8.76279 16.5939 8.60518 16.5938C8.44756 16.5938 8.29149 16.5627 8.1459 16.5023C8.0003 16.4419 7.86801 16.3535 7.7566 16.242C6.63177 15.1168 5.99988 13.591 5.99988 12C5.99988 10.409 6.63177 8.88315 7.7566 7.75798C7.86805 7.64641 8.00039 7.5579 8.14607 7.49751C8.29175 7.43712 8.4479 7.40604 8.6056 7.40604C8.7633 7.40604 8.91945 7.43712 9.06513 7.49751C9.21081 7.5579 9.34315 7.64641 9.4546 7.75798V7.75678ZM14.545 7.75678C14.6564 7.64521 14.7888 7.5567 14.9345 7.49631C15.0802 7.43592 15.2363 7.40484 15.394 7.40484C15.5517 7.40484 15.7079 7.43592 15.8535 7.49631C15.9992 7.5567 16.1316 7.64521 16.243 7.75678C16.8003 8.31396 17.2424 8.97546 17.544 9.70352C17.8457 10.4316 18.0009 11.2119 18.0009 12C18.0009 12.788 17.8457 13.5684 17.544 14.2965C17.2424 15.0245 16.8003 15.686 16.243 16.2432C16.0178 16.4684 15.7124 16.5949 15.394 16.5949C15.0756 16.5949 14.7702 16.4684 14.545 16.2432C14.3198 16.018 14.1933 15.7126 14.1933 15.3942C14.1933 15.0757 14.3198 14.7704 14.545 14.5452C15.2199 13.8701 15.599 12.9546 15.599 12C15.599 11.0454 15.2199 10.1299 14.545 9.45478C14.4334 9.34334 14.3449 9.21099 14.2845 9.06531C14.2241 8.91964 14.1931 8.76348 14.1931 8.60578C14.1931 8.44809 14.2241 8.29193 14.2845 8.14626C14.3449 8.00058 14.4334 7.86823 14.545 7.75678ZM11.9998 10.8C12.3181 10.8 12.6233 10.9264 12.8483 11.1515C13.0734 11.3765 13.1998 11.6817 13.1998 12V12.012C13.1998 12.3302 13.0734 12.6355 12.8483 12.8605C12.6233 13.0856 12.3181 13.212 11.9998 13.212C11.6815 13.212 11.3763 13.0856 11.1513 12.8605C10.9262 12.6355 10.7998 12.3302 10.7998 12.012V12C10.7998 11.6817 10.9262 11.3765 11.1513 11.1515C11.3763 10.9264 11.6815 10.8 11.9998 10.8Z" fill="black" fill-opacity="0.87"/>
</svg>
