<svg width="24" height="24" viewBox="0 0 24 24" fill="none" xmlns="http://www.w3.org/2000/svg">
<g clip-path="url(#clip0)">
<path d="M9.20961 1.57868L9.48871 3.20245C9.56481 3.62109 9.27304 4.01434 8.86712 4.07777C8.82907 4.09044 8.77831 4.09044 8.74026 4.09044C8.37238 4.09044 8.05523 3.82405 7.9918 3.45618L7.7127 1.8324C7.6366 1.41377 7.92837 1.02052 8.33429 0.957087C8.75292 0.880987 9.14618 1.16009 9.20961 1.57868ZM0.887825 13.2748L2.5116 12.9957C2.93023 12.9196 3.20929 12.539 3.13319 12.1204C3.05709 11.7018 2.67651 11.4227 2.25788 11.4988L0.634103 11.7779C0.215469 11.854 -0.0635912 12.2346 0.0125082 12.6532C0.0759389 13.0211 0.393092 13.2875 0.760964 13.2875C0.811726 13.2875 0.849776 13.2875 0.887825 13.2748ZM14.8547 2.91068L13.8779 4.28073C13.6369 4.62322 13.713 5.09262 14.0555 5.34634C14.195 5.44782 14.3472 5.48587 14.4995 5.48587C14.7405 5.48587 14.9688 5.37172 15.1211 5.16872L16.0979 3.79867C16.3389 3.45618 16.2628 2.98678 15.9203 2.73306C15.5778 2.47934 15.0957 2.56819 14.8547 2.91068ZM4.32562 6.98278C4.56663 6.64029 4.49053 6.1709 4.14804 5.91718L2.77799 4.94038C2.4355 4.69937 1.9661 4.77547 1.71238 5.11796C1.47137 5.46045 1.54747 5.92984 1.88996 6.18357L3.26001 7.16036C3.39954 7.26184 3.55178 7.29989 3.70403 7.29989C3.94508 7.29989 4.17342 7.18574 4.32562 6.98278ZM23.8361 20.7213C23.316 22.4465 21.6922 23.0554 20.3475 23.0554C20.2714 23.0554 20.2207 23.0554 20.1953 23.0554H8.53725C7.34483 23.0554 5.69567 22.4973 4.69349 21.2667C4.09728 20.531 3.47568 19.2371 3.89432 17.2581C4.22414 15.6597 5.07408 14.5053 6.29188 13.9091C5.67029 13.0972 5.34047 12.1077 5.34047 11.0548C5.34047 8.4416 7.45897 6.3231 10.0722 6.3231C11.7594 6.3231 13.3324 7.23646 14.1697 8.69533C14.1823 8.72071 14.195 8.74609 14.2077 8.77143C14.3346 8.75876 14.4487 8.75876 14.5756 8.75876C15.2098 8.75876 15.8949 8.86024 16.5926 9.07591C21.5273 10.5474 21.6796 14.6322 21.54 16.2179C22.8593 16.8775 24.5338 18.3871 23.8361 20.7213ZM7.89028 13.4524C8.09324 13.427 8.2962 13.4144 8.51187 13.4144C8.68945 13.4144 8.85436 13.427 8.99394 13.4397C9.476 11.9428 10.605 9.93851 12.6094 9.11396C12.0131 8.31479 11.0617 7.83272 10.0469 7.83272C8.28357 7.84539 6.85009 9.27887 6.85009 11.0549C6.85009 11.9175 7.17991 12.7167 7.78884 13.3256C7.82685 13.3636 7.8649 13.4017 7.89028 13.4524ZM21.7303 18.1715C21.1467 17.6514 20.449 17.3976 20.449 17.385C20.0812 17.2581 19.8782 16.8775 19.967 16.497C20.005 16.3194 20.9057 11.9429 16.1486 10.5094C15.5904 10.3445 15.0576 10.2557 14.5756 10.2557C11.2139 10.2557 10.3259 14.3912 10.3132 14.4292C10.2752 14.6322 10.1483 14.8098 9.97073 14.924C9.79315 15.0381 9.57748 15.0635 9.38719 15.0255C9.38719 15.0255 9.01932 14.9367 8.52458 14.9367C6.79933 14.9367 5.74643 15.8246 5.37856 17.5626C5.15022 18.6789 5.31513 19.6049 5.87329 20.3027C6.55832 21.1526 7.73808 21.5332 8.53725 21.5332H20.2207C20.2334 21.5332 20.2587 21.5332 20.2715 21.5332C20.2715 21.5332 20.3095 21.5332 20.3475 21.5332C20.8423 21.5332 22.0348 21.4063 22.3772 20.2773C22.6183 19.4781 22.4026 18.7804 21.7303 18.1715Z" fill="black" fill-opacity="0.87"/>
</g>
<defs>
<clipPath id="clip0">
<rect width="24" height="24" fill="white"/>
</clipPath>
</defs>
</svg>
