<svg width="24" height="24" viewBox="0 0 24 24" fill="none" xmlns="http://www.w3.org/2000/svg">
<path d="M20.8502 21.075C18.2627 15.9 15.7127 10.7625 13.1252 5.58752C13.6877 5.21252 14.0627 4.57502 14.0627 3.86252C14.0627 2.70002 13.1252 1.80002 12.0002 1.80002C10.8377 1.80002 9.9377 2.73752 9.9377 3.86252C9.9377 4.65002 10.3877 5.32502 11.0252 5.70002C8.4002 10.8375 5.7752 15.975 3.1502 21.1125C2.8877 21.6 3.1877 22.2375 3.7877 22.2375C9.2627 22.2375 14.7377 22.2 20.1752 22.2C20.8127 22.2 21.1127 21.5625 20.8502 21.075ZM9.0752 12.7875L14.1377 10.875C14.5127 11.625 14.8877 12.375 15.2627 13.125L7.5377 15.75C8.0252 14.8125 8.5502 13.8 9.0752 12.7875ZM10.0877 10.8375C10.7627 9.52502 11.4377 8.17502 12.1127 6.86252C12.5627 7.76252 13.0127 8.66252 13.4627 9.56252L10.0877 10.8375ZM6.5627 17.7L15.9377 14.5125C16.3127 15.2625 16.6877 16.0125 17.0627 16.7625L5.0627 20.7375C5.5502 19.725 6.0377 18.7125 6.5627 17.7ZM17.7002 18.1125C18.1127 18.975 18.5627 19.8375 18.9752 20.7C15.9002 20.7 12.8627 20.7 9.7877 20.7L17.7002 18.1125ZM12.0002 3.26252C12.3002 3.26252 12.5627 3.52502 12.5627 3.82502C12.5627 4.12502 12.3377 4.35002 12.0377 4.38752C12.0002 4.38752 12.0002 4.38752 11.9627 4.38752C11.6627 4.38752 11.4002 4.12502 11.4002 3.82502C11.4377 3.52502 11.7002 3.26252 12.0002 3.26252Z" fill="black" fill-opacity="0.87"/>
</svg>
