<svg width="24" height="24" viewBox="0 0 24 24" fill="none" xmlns="http://www.w3.org/2000/svg">
<path d="M22.1251 1.87501C21.9001 1.65001 21.6001 1.57501 21.3751 1.72501L5.7751 6.75001C5.7001 6.30001 5.4751 5.92501 5.1001 5.55001C4.6501 5.10001 4.0501 4.80001 3.3751 4.87501C2.8501 4.87501 2.3251 5.17501 1.9501 5.62501C1.5001 6.30001 1.3501 7.05001 1.5001 7.87501C2.9251 15.3 8.7001 21.075 16.1251 22.5C16.2751 22.5 16.5001 22.5 16.7251 22.5C17.4001 22.5 18.0751 22.275 18.5251 21.75C18.9001 21.375 19.0501 21 19.1251 20.55C19.2001 19.5 18.3751 18.525 17.2501 18.15L20.7751 7.35001L21.3001 5.77501L22.3501 2.62501C22.4251 2.32501 22.3501 2.02501 22.1251 1.87501ZM20.1001 4.57501C19.9501 4.50001 19.8001 4.50001 19.6501 4.50001C18.3751 4.50001 17.3251 5.55001 17.3251 6.82501C17.3251 7.80001 17.9251 8.55001 18.6751 8.92501L17.4001 12.75C17.2501 12.75 17.1001 12.75 16.8751 12.75C15.4501 12.75 14.2501 13.95 14.2501 15.375C14.2501 16.425 14.9251 17.4 15.8251 17.775V17.85C15.7501 17.85 15.6751 17.85 15.6001 17.775C15.5251 17.775 15.3751 17.7 15.3001 17.7C15.0751 17.625 14.9251 17.55 14.7001 17.475C14.6251 17.4 14.4751 17.4 14.4001 17.325C14.2501 17.25 14.0251 17.175 13.8751 17.1C13.7251 17.025 13.6501 17.025 13.5001 16.95C13.3501 16.875 13.2001 16.8 12.9751 16.725C12.8251 16.65 12.7501 16.575 12.6001 16.5C12.4501 16.425 12.3001 16.35 12.1501 16.2C12.0001 16.125 11.9251 16.05 11.7751 15.975C11.6251 15.9 11.4751 15.75 11.3251 15.675C11.1751 15.6 11.1001 15.525 10.9501 15.45C10.8001 15.375 10.7251 15.225 10.5751 15.15C10.5001 15.075 10.3501 15 10.2751 14.85C10.1251 14.775 10.0501 14.625 9.9751 14.55C9.7501 14.325 9.4501 14.1 9.2251 13.8C9.1501 13.725 9.0751 13.65 9.0001 13.575C8.8501 13.425 8.7751 13.275 8.6251 13.125C8.5501 13.05 8.4751 12.9 8.4001 12.825C8.3251 12.675 8.1751 12.525 8.1001 12.375C8.0251 12.3 7.9501 12.15 7.8751 12.075C7.8001 11.925 7.6501 11.775 7.5751 11.625C7.5001 11.55 7.4251 11.4 7.3501 11.25C7.2751 11.1 7.2001 10.95 7.1251 10.8C7.0501 10.65 6.9751 10.575 6.9001 10.425C6.8251 10.275 6.7501 10.125 6.6751 9.97501C6.6001 9.82501 6.5251 9.67501 6.5251 9.52501C6.4501 9.37501 6.3751 9.22501 6.3751 9.07501C6.3001 8.92501 6.2251 8.77501 6.2251 8.55001C6.1501 8.40001 6.1501 8.32501 6.0751 8.17501C6.0751 8.10001 6.0751 8.02501 6.0001 8.02501L12.0001 6.30001C12.2251 7.35001 13.2001 8.10001 14.2501 8.10001C15.5251 8.10001 16.5751 7.05001 16.5751 5.77501C16.5751 5.47501 16.5001 5.10001 16.3501 4.87501L20.3251 3.60001L20.1001 4.57501ZM19.5001 6.37501L19.1251 7.50001C18.9001 7.35001 18.7501 7.12501 18.7501 6.82501C18.7501 6.37501 19.1251 6.00001 19.5751 6.00001L19.5001 6.37501ZM15.7501 15.375C15.7501 14.775 16.2751 14.25 16.8751 14.25H16.9501L16.2751 16.35C15.9751 16.125 15.7501 15.75 15.7501 15.375ZM15.0001 5.32501C15.0751 5.47501 15.1501 5.62501 15.1501 5.77501C15.1501 6.22501 14.7751 6.60001 14.3251 6.60001C13.8751 6.60001 13.5001 6.22501 13.5001 5.77501L15.0001 5.32501ZM17.6251 20.475C17.6251 20.475 17.6251 20.625 17.4751 20.7C17.3251 20.85 16.9501 21.075 16.4251 20.925C9.6001 19.725 4.2751 14.4 3.0001 7.57501C2.9251 7.20001 3.0001 6.82501 3.1501 6.60001C3.2251 6.52501 3.3001 6.37501 3.4501 6.37501C3.6751 6.37501 3.8251 6.52501 3.9751 6.60001C4.1251 6.75001 4.2751 7.05001 4.3501 7.27501C4.3501 7.42501 4.4251 7.50001 4.4251 7.65001L4.5001 7.87501C5.8501 13.575 10.3501 18.15 16.1251 19.5L16.3501 19.575C16.5001 19.575 16.5751 19.65 16.6501 19.65C17.1751 19.725 17.6251 20.1 17.6251 20.475Z" fill="black" fill-opacity="0.87"/>
<path d="M10.2752 8.625C9.00019 8.625 7.9502 9.675 7.9502 10.95C7.9502 12.225 9.00019 13.275 10.2752 13.275C11.5502 13.275 12.6002 12.225 12.6002 10.95C12.6002 9.675 11.5502 8.625 10.2752 8.625ZM10.2752 11.85C9.82519 11.85 9.4502 11.475 9.4502 11.025C9.4502 10.575 9.82519 10.2 10.2752 10.2C10.7252 10.2 11.1002 10.575 11.1002 11.025C11.1002 11.475 10.7252 11.85 10.2752 11.85Z" fill="black" fill-opacity="0.87"/>
<path d="M13.5752 10.575C13.5752 11.7 14.4752 12.6 15.6002 12.6C16.7252 12.6 17.6252 11.7 17.6252 10.575C17.6252 9.44999 16.7252 8.54999 15.6002 8.54999C14.4752 8.54999 13.5752 9.44999 13.5752 10.575ZM16.0502 10.575C16.0502 10.875 15.8252 11.1 15.5252 11.1C15.2252 11.1 15.0002 10.875 15.0002 10.575C15.0002 10.275 15.2252 10.05 15.5252 10.05C15.8252 10.05 16.0502 10.275 16.0502 10.575Z" fill="black" fill-opacity="0.87"/>
</svg>
