<svg width="24" height="24" viewBox="0 0 24 24" fill="none" xmlns="http://www.w3.org/2000/svg">
<path d="M19.78 5.7133C19.5589 5.43938 19.3224 5.17601 19.0711 4.92467C17.1179 2.97148 14.4432 1.91405 11.6899 2.01561C11.6104 2.01823 11.5315 2.01189 11.4519 2.01646C8.99101 2.14732 6.67363 3.17955 4.92851 4.92467C3.18339 6.66978 2.15117 8.98717 2.02128 11.4432C2.0009 11.7975 1.99961 12.1509 2.01689 12.502C2.12059 14.6094 2.89293 16.6349 4.21959 18.2786C4.44065 18.5525 4.67717 18.8159 4.92851 19.0672C6.80449 20.9432 9.34843 21.9911 11.9793 21.9911C11.9799 21.9911 11.9806 21.991 11.9812 21.991C11.9815 21.991 11.9819 21.9911 11.9822 21.9911C11.9988 21.9911 12.0154 21.9897 12.032 21.9896C12.2038 21.9888 12.3758 21.9852 12.5476 21.9754C15.0086 21.8446 17.326 20.8124 19.0711 19.0672C20.8162 17.3221 21.8484 15.0047 21.9783 12.5487C21.9987 12.1944 22 11.841 21.9827 11.4899C21.879 9.38255 21.1066 7.35704 19.78 5.7133ZM12.6689 4.03313C12.7757 4.04198 12.8821 4.05443 12.9882 4.06749C13.1314 4.08513 13.2739 4.10594 13.4156 4.13127C13.5231 4.15056 13.6302 4.17198 13.7367 4.1956C13.875 4.22624 14.0122 4.26115 14.1485 4.29912C14.2543 4.32854 14.3597 4.35875 14.464 4.39244C14.5987 4.43596 14.7314 4.48485 14.8635 4.53544C14.9654 4.57445 15.0674 4.6129 15.1676 4.65605C15.2994 4.71281 15.4283 4.77605 15.5569 4.83989C15.6528 4.88743 15.7494 4.93309 15.8434 4.98448C15.9747 5.05638 16.1018 5.13579 16.2291 5.21507C16.3148 5.26842 16.4023 5.31865 16.486 5.37529C16.6241 5.46873 16.7565 5.57103 16.8888 5.67326C16.9562 5.72526 17.0264 5.77305 17.0923 5.82738C17.2875 5.98839 17.4765 6.15819 17.657 6.33873C17.8456 6.52745 18.0217 6.72612 18.1891 6.93083C18.2414 6.99492 18.2884 7.06273 18.3386 7.12822C18.4493 7.27251 18.5574 7.41838 18.6576 7.56932C18.7111 7.64989 18.7604 7.73277 18.8109 7.81505C18.8984 7.95781 18.9823 8.10228 19.0605 8.24992C19.1072 8.33806 19.152 8.42717 19.1953 8.51695C19.268 8.66765 19.3351 8.82072 19.3982 8.97557C19.4342 9.06395 19.4708 9.15196 19.5036 9.24156C19.5659 9.41167 19.6199 9.58458 19.6705 9.75865C19.6928 9.83555 19.7185 9.91136 19.7386 9.989C19.8028 10.2373 19.8571 10.4886 19.8971 10.743C19.8977 10.7469 19.8988 10.7507 19.8995 10.7546C19.9373 10.9977 19.9595 11.2436 19.9747 11.4905C18.0472 11.3701 16.2104 10.5503 14.8279 9.16783C13.4465 7.78636 12.627 5.95116 12.5057 4.02507C12.56 4.02843 12.6147 4.02867 12.6689 4.03313ZM10.8724 19.9095C10.7362 19.8902 10.6019 19.8634 10.4671 19.8372C10.3188 19.8084 10.17 19.7811 10.0238 19.7439C9.89842 19.712 9.77549 19.6717 9.65184 19.6338C9.52781 19.5958 9.40373 19.5583 9.28178 19.5143C9.15947 19.4702 9.03941 19.4206 8.91941 19.3705C8.79771 19.3197 8.67692 19.267 8.55778 19.2101C8.44468 19.1563 8.33281 19.0999 8.22227 19.0408C8.09727 18.9737 7.97471 18.9022 7.85325 18.8285C7.75425 18.7685 7.65501 18.709 7.55851 18.6446C7.42106 18.5528 7.28819 18.4536 7.15617 18.353C7.08116 18.2959 7.00395 18.2422 6.93083 18.1823C6.72764 18.0157 6.53013 17.8407 6.34257 17.6532C6.15379 17.4643 5.97764 17.2655 5.81022 17.0607C5.75828 16.9971 5.7119 16.93 5.66203 16.8651C5.55101 16.7204 5.44249 16.5739 5.34196 16.4225C5.28856 16.3421 5.23924 16.2593 5.18888 16.1771C5.10124 16.034 5.01701 15.8892 4.9387 15.7413C4.89232 15.6535 4.84776 15.565 4.80467 15.4758C4.73179 15.3248 4.66453 15.1712 4.6013 15.016C4.56535 14.9278 4.52873 14.8399 4.49595 14.7505C4.43351 14.5798 4.37938 14.4062 4.32866 14.2315C4.30656 14.1554 4.28099 14.0804 4.26115 14.0036C4.19688 13.7549 4.1425 13.5034 4.10246 13.2488C4.10185 13.245 4.10075 13.2412 4.10014 13.2373C4.0623 12.9942 4.0402 12.7483 4.02494 12.5014C5.9525 12.6218 7.78923 13.4416 9.17167 14.8241C10.5546 16.207 11.3746 18.0445 11.4945 19.9729C11.2857 19.9603 11.0784 19.9384 10.8724 19.9095ZM17.657 17.6532C16.5121 18.7973 15.0576 19.5508 13.4841 19.8451C13.3334 17.4348 12.3138 15.1381 10.5857 13.41C8.8574 11.6817 6.56462 10.6521 4.15147 10.5075C4.44554 8.93724 5.19883 7.48326 6.34257 6.33873C7.48747 5.19462 8.94206 4.44108 10.5155 4.14677C10.6662 6.55711 11.6858 8.8538 13.4139 10.5819C15.1424 12.3104 17.4394 13.3246 19.85 13.4751C19.5572 15.0489 18.803 16.5064 17.657 17.6532Z" fill="black" fill-opacity="0.87"/>
</svg>
