<svg width="24" height="24" viewBox="0 0 24 24" fill="none" xmlns="http://www.w3.org/2000/svg">
<path d="M11.1688 4.01415C11.0841 4.03657 8.90419 4.52976 6.31606 5.10515C3.73564 5.68054 1.50184 6.18868 1.35549 6.23352C0.978055 6.36055 0.384943 6.90605 0.184672 7.31704C-0.208168 8.0942 0.0460224 9.17773 0.754675 9.76059C1.0936 10.0445 1.52495 10.194 2.82671 10.478L3.57388 10.6349L3.59699 13.9004L3.6201 17.1585L3.83578 17.562C4.4674 18.7277 6.06957 19.4974 8.58837 19.8636C9.85933 20.0504 13.2023 20.0429 14.4425 19.8561C17.046 19.46 18.5942 18.6978 19.1951 17.5097L19.4107 17.0838L19.4338 13.8556L19.457 10.6349L20.3582 10.4331C21.4982 10.1865 21.8448 10.067 22.2453 9.76806C22.8924 9.28982 23.1851 8.21376 22.877 7.42913C22.6921 6.96583 22.2299 6.48758 21.7755 6.30077C21.3903 6.14384 12.2087 4.06646 11.6541 4.01415C11.4692 3.99173 11.2535 3.9992 11.1688 4.01415ZM16.3681 6.44275C19.2644 7.08539 21.1824 7.5487 21.2979 7.62342C21.6753 7.89244 21.6753 8.50519 21.2902 8.74432C21.1978 8.79662 18.964 9.31971 16.3219 9.91752L11.5154 10.9936L6.83985 9.94741C4.25943 9.37201 2.07185 8.88629 1.97941 8.86388C1.47103 8.74431 1.26306 8.11662 1.60198 7.73551C1.77144 7.54122 2.11036 7.45902 6.51633 6.46517C9.11986 5.8823 11.3306 5.40406 11.4384 5.39658C11.5385 5.38911 13.7569 5.85988 16.3681 6.44275ZM8.16472 11.6661C9.81311 12.0323 11.3074 12.3386 11.4846 12.3386C11.6618 12.3386 13.1638 12.0323 14.8199 11.6661C16.4837 11.2925 17.8702 10.9936 17.9164 10.9936C17.9549 10.9936 17.9857 12.0995 17.9857 13.8631C17.9857 16.7176 17.9857 16.7251 17.8163 16.9418C17.539 17.2855 17.3695 17.4051 16.6994 17.7264C15.9368 18.0851 14.635 18.4214 13.4642 18.5409C12.3165 18.6679 9.65135 18.6007 8.6654 18.4288C7.19417 18.1673 5.91552 17.6666 5.35322 17.1211L5.04511 16.8222V13.9079C5.04511 12.3013 5.07592 10.9936 5.10673 10.9936C5.14524 10.9936 6.51633 11.2925 8.16472 11.6661Z" fill="black" fill-opacity="0.87"/>
<path d="M22.0455 7.15173C21.9475 7.23539 21.8413 7.44455 21.8086 7.62861C21.7677 7.8796 21.7514 14.0455 21.7922 14.9742C21.8004 15.0579 21.8903 15.2168 22.0046 15.3256C22.2906 15.6268 22.7236 15.61 23.034 15.2921L23.2709 15.0495V7.48638L23.034 7.24376C22.7481 6.95931 22.3314 6.91748 22.0455 7.15173ZM22.0945 16.5471C21.6779 16.8817 21.1469 18.1952 21.0161 19.1824C20.9099 20.0191 21.3347 20.7135 22.0863 20.931C22.7807 21.1401 23.4588 20.8641 23.8183 20.2366C24.0062 19.9103 24.0225 19.8099 23.9816 19.2326C23.9571 18.8227 23.8509 18.3374 23.6957 17.9024C23.2056 16.5303 22.6745 16.0869 22.0945 16.5471Z" fill="black" fill-opacity="0.87"/>
</svg>
